<?xml version="1.0" standalone="no"?>
<!DOCTYPE svg PUBLIC "-//W3C//DTD SVG 20010904//EN"
 "http://www.w3.org/TR/2001/REC-SVG-20010904/DTD/svg10.dtd">
<svg version="1.0" xmlns="http://www.w3.org/2000/svg"
 width="256.000000pt" height="256.000000pt" viewBox="0 0 256.000000 256.000000"
 preserveAspectRatio="xMidYMid meet">

<g transform="translate(0.000000,256.000000) scale(0.100000,-0.100000)"
fill="#000000" stroke="none">
<path d="M1025 2455 c-5 -2 -36 -11 -67 -20 l-58 -16 0 -668 c0 -642 1 -671
20 -732 52 -164 186 -259 364 -259 75 0 90 3 153 35 83 41 144 103 181 183
l27 57 3 692 3 692 -53 16 c-29 9 -74 19 -100 22 l-46 6 0 -691 c-1 -763 3
-719 -66 -780 -42 -36 -104 -49 -163 -33 -50 14 -107 74 -122 128 -7 25 -11
266 -11 706 l0 667 -27 -1 c-16 0 -32 -2 -38 -4z"/>
<path d="M662 2304 c-143 -96 -260 -229 -335 -379 -87 -175 -100 -262 -94
-659 5 -362 10 -395 102 -581 193 -391 603 -619 1036 -575 307 30 577 181 754
422 63 84 131 230 161 343 27 99 27 103 26 430 -1 373 -7 428 -71 574 -72 167
-191 309 -344 412 -49 32 -93 59 -98 59 -11 0 -10 64 -12 -670 -2 -564 -4
-631 -20 -684 -57 -192 -221 -336 -416 -368 -240 -38 -483 114 -564 352 -21
64 -22 76 -25 723 -2 361 -6 657 -10 657 -4 0 -44 -26 -90 -56z m1375 -454
c12 -19 33 -70 47 -112 26 -76 26 -79 26 -406 0 -297 -2 -336 -20 -408 -78
-306 -329 -544 -644 -611 -102 -22 -316 -13 -411 17 -315 100 -536 345 -590
656 -18 104 -21 530 -4 651 12 91 57 204 99 253 l29 35 1 -446 c0 -411 2 -452
20 -523 31 -120 92 -228 180 -316 88 -88 157 -131 277 -173 83 -30 96 -32 228
-31 124 0 149 3 220 27 233 77 406 261 465 493 18 71 20 112 20 527 0 498 -4
470 57 367z"/>
</g>
</svg>
